<svg xmlns="http://www.w3.org/2000/svg" viewBox="0 0 572.48 508.26"><defs><linearGradient id="b" x1="4438.66" x2="4441.68" y1="2819.58" y2="2821.21" gradientTransform="matrix(-.77 -.64 -.64 .77 5402.14 999.53)" gradientUnits="userSpaceOnUse"><stop offset=".04" stop-color="#858585"/><stop offset=".23" stop-color="#a5a5a5"/><stop offset=".65" stop-color="#e6e6e6"/><stop offset=".84" stop-color="#fff"/></linearGradient><clipPath id="d"><polygon fill="none" points="185.84 310.74 189.89 315.39 186.1 316.77 185.84 310.74"/></clipPath><filter id="a" width="5.6" height="6.86" x="185.02" y="310.52" color-interpolation-filters="sRGB" filterUnits="userSpaceOnUse"><feFlood flood-color="#fff" result="bg"/><feBlend in="SourceGraphic" in2="bg"/></filter><mask id="c" width="5.6" height="6.86" x="185.02" y="310.52" maskUnits="userSpaceOnUse"><g filter="url(#a)" mask="url(#b)"><polygon points="185.84 310.74 189.89 315.39 186.1 316.77 185.84 310.74" style="mix-blend-mode:multiply" fill="url(#b)"/></g></mask></defs><path fill="#bfeeef" d="M543.53,427.67a194.74,194.74,0,0,1-34.24,38.24H428.85c-.06-.29-.12-.57-.17-.86-.36.29-.7.58-1.06.86l-.21.17h-395c.4-26.21,13.06-61.65,35.9-98.72-19.13,8.37-36.18,9.67-47.6,2C-5.51,351.84,7.76,294,50.3,240.08c29.93-37.89,66.35-63.68,94.45-69.56,7.29-17,18.08-35.08,32-52.76C219.34,63.89,275.05,34.43,301.23,52c.58.39,1.11.81,1.65,1.24,52.17-44.56,103.9-64.72,131-46.56,24.17,16.19,22.9,58.93,1.1,110.13C468.17,81,503.23,62.66,524.21,73.52c23.28,12.07,22.19,56.45.34,107.62,12.17-5.5,23.35-6.6,31.93-2.16,23.55,12.2,18.64,61.39-11,109.86a214.93,214.93,0,0,1-21.65,29.56c13.16-5,25.15-5.43,34.14-.19C582,332.21,575.5,381.22,543.53,427.67Z"/><path fill="#fff" d="M401.83,224.77a9,9,0,0,0-4.22.28c0-.13,0-.27,0-.41,0-8.2-7.1-14.86-15.89-14.86a16.54,16.54,0,0,0-9.37,2.84c-2-8.25-10.26-14.29-19.88-13.61-9,.63-16.33,7.28-17.3,15.64A16.59,16.59,0,0,0,336,222a11.83,11.83,0,0,0-2.75-.32c-6.1,0-11.15,4.61-11.15,10.3v.82a8.13,8.13,0,0,0,8.39,7.85l69.92.05a8.15,8.15,0,0,0,8.41-7.84h0A8.25,8.25,0,0,0,401.83,224.77Z" opacity=".5"/><path fill="#fff" d="M394,446.32a10.47,10.47,0,0,1,4.95.33c0-.16,0-.32,0-.49,0-9.6,8.32-17.39,18.6-17.4a19.41,19.41,0,0,1,11,3.34c2.39-9.66,12-16.74,23.28-15.94,10.51.74,19.12,8.52,20.26,18.31a19.65,19.65,0,0,1-.91,8.55,13.65,13.65,0,0,1,3.22-.38c7.14,0,13.05,5.4,13.06,12.06v.95c0,5.08-4.4,9.19-9.83,9.2l-81.85,0c-5.44,0-9.84-4.1-9.84-9.17h0A9.65,9.65,0,0,1,394,446.32Z" opacity=".5"/><path fill="#fff" d="M553.6,359.61a7.7,7.7,0,0,0-3.66.25c0-.12,0-.24,0-.37,0-7.1-6.16-12.87-13.77-12.88a14.43,14.43,0,0,0-8.13,2.47c-1.76-7.15-8.89-12.39-17.23-11.8-7.78.55-14.15,6.31-15,13.56a14.37,14.37,0,0,0,.67,6.33,10.42,10.42,0,0,0-2.39-.28c-5.28,0-9.66,4-9.67,8.93v.7a7.06,7.06,0,0,0,7.28,6.81l60.6,0a7.07,7.07,0,0,0,7.29-6.8h0A7.15,7.15,0,0,0,553.6,359.61Z" opacity=".5"/><path fill="#fff" d="M128.65,371.44a12.55,12.55,0,0,0-6,.4c0-.2,0-.39,0-.59,0-11.64-10.08-21.08-22.54-21.09a23.49,23.49,0,0,0-13.29,4C84,342.5,72.28,333.92,58.65,334.89c-12.75.9-23.18,10.32-24.55,22.19a23.54,23.54,0,0,0,1.09,10.36,16.66,16.66,0,0,0-3.9-.46c-8.65,0-15.82,6.54-15.82,14.62v1.15c0,6.15,5.33,11.14,11.92,11.14l99.19.07c6.58,0,11.92-5,11.92-11.12h0A11.7,11.7,0,0,0,128.65,371.44Z" opacity=".5"/><path fill="#fff" d="M558.11,255.49a9.85,9.85,0,0,0-4.61.31c0-.15,0-.3,0-.45,0-9-7.77-16.25-17.37-16.25a18.09,18.09,0,0,0-10.25,3.11c-2.23-9-11.23-15.63-21.74-14.89-9.82.7-17.86,8-18.92,17.11a18,18,0,0,0,.85,8,13,13,0,0,0-3-.35c-6.67,0-12.2,5-12.2,11.26v.89c0,4.74,4.11,8.59,9.18,8.59l76.46.05c5.07,0,9.18-3.83,9.19-8.57h0A9,9,0,0,0,558.11,255.49Z" opacity=".5"/><path fill="#fff" d="M465.85,128.25a9.43,9.43,0,0,1,4.51.3c0-.15,0-.3,0-.45,0-8.76,7.6-15.87,17-15.88a17.7,17.7,0,0,1,10,3c2.18-8.82,11-15.28,21.24-14.55,9.6.68,17.45,7.77,18.49,16.71a17.63,17.63,0,0,1-.83,7.8,12.93,12.93,0,0,1,2.94-.34c6.52,0,11.92,4.92,11.92,11v.88c0,4.63-4,8.38-9,8.39l-74.7.05c-5,0-9-3.75-9-8.38h0A8.8,8.8,0,0,1,465.85,128.25Z" opacity=".5"/><path fill="#fff" d="M323.39,97.88a8.79,8.79,0,0,1,4.11.27c0-.13,0-.27,0-.4,0-8,6.91-14.46,15.46-14.46a16.13,16.13,0,0,1,9.11,2.77c2-8,10-13.91,19.34-13.25,8.74.62,15.89,7.08,16.84,15.22a16.05,16.05,0,0,1-.76,7.11,11.3,11.3,0,0,1,2.68-.32c5.93,0,10.85,4.48,10.85,10v.79a7.9,7.9,0,0,1-8.16,7.64l-68,0a7.91,7.91,0,0,1-8.18-7.63h0A8,8,0,0,1,323.39,97.88Z" opacity=".5"/><polygon fill="#4bc6c9" points="468.65 215.96 458.64 158.34 402.63 176.29 419.23 186.26 276.61 404.34 321.08 404.34 451.03 205.37 468.65 215.96"/><polygon fill="#73d8d8" points="340.49 292.87 334.72 259.67 302.45 270.01 312.02 275.76 229.84 401.4 255.47 401.4 330.34 286.76 340.49 292.87"/><polygon fill="#73d8d8" points="106.13 341 102.69 321.27 83.51 327.41 89.2 330.83 59.33 376.51 68.66 385.5 100.09 337.37 106.13 341"/><polygon fill="#92e8e5" points="487.42 384.07 481.65 350.87 449.38 361.21 458.95 366.96 391.87 471.42 417.5 471.42 477.27 377.97 487.42 384.07"/><path fill="#fff" d="M173.28,197.81a11.48,11.48,0,0,0-5.41.36c0-.18,0-.35,0-.53,0-10.51-9.11-19-20.35-19a21.33,21.33,0,0,0-12,3.65c-2.61-10.57-13.15-18.31-25.46-17.44-11.51.81-20.92,9.32-22.17,20a21.28,21.28,0,0,0,1,9.35,15,15,0,0,0-3.52-.42c-7.81,0-14.28,5.91-14.29,13.2v1c0,5.55,4.81,10.06,10.75,10.06l89.56.07c6,0,10.77-4.5,10.77-10.05h0A10.56,10.56,0,0,0,173.28,197.81Z" opacity=".5"/><path fill="#fff" d="M178,326.93a9,9,0,0,1,4.21.29c0-.14,0-.28,0-.42,0-8.18,7.09-14.82,15.84-14.82a16.45,16.45,0,0,1,9.35,2.84c2-8.23,10.24-14.26,19.83-13.58,9,.63,16.29,7.26,17.26,15.6a16.5,16.5,0,0,1-.77,7.28,11.81,11.81,0,0,1,2.74-.32c6.09,0,11.13,4.6,11.13,10.28v.81a8.12,8.12,0,0,1-8.37,7.83l-69.75,0a8.12,8.12,0,0,1-8.38-7.82h0A8.24,8.24,0,0,1,178,326.93Z" opacity=".5"/><path fill="#fff" d="M168.12,453.78a9.27,9.27,0,0,0-4.41.3c0-.15,0-.29,0-.44,0-8.57-7.42-15.52-16.59-15.52a17.26,17.26,0,0,0-9.79,3c-2.13-8.62-10.73-14.93-20.77-14.22-9.38.66-17.06,7.6-18.07,16.34a17.33,17.33,0,0,0,.8,7.63,12.32,12.32,0,0,0-2.87-.34c-6.37,0-11.65,4.81-11.65,10.76v.85c0,4.53,3.92,8.2,8.77,8.2l73,.05a8.49,8.49,0,0,0,8.78-8.19h0A8.61,8.61,0,0,0,168.12,453.78Z" opacity=".5"/><path fill="#fff" d="M434.22,39a7,7,0,0,0-3.36.23c0-.11,0-.22,0-.34,0-6.54-5.68-11.85-12.68-11.85a13.25,13.25,0,0,0-7.48,2.27c-1.62-6.58-8.19-11.4-15.85-10.86-7.17.51-13,5.8-13.81,12.48a13.14,13.14,0,0,0,.62,5.82,9.89,9.89,0,0,0-2.2-.26c-4.86,0-8.89,3.68-8.9,8.22v.65a6.5,6.5,0,0,0,6.7,6.27l55.78,0a6.51,6.51,0,0,0,6.71-6.26h0A6.59,6.59,0,0,0,434.22,39Z" opacity=".5"/><path fill="#a4b774" d="M527.19,403.42c-1.77,10.29-6.13,22-12,32.47l-.53.94c-.41.71-.83,1.42-1.25,2.13s-.9,1.46-1.36,2.19l-.23.36a84.89,84.89,0,0,1-5.45,7.56c-.35.44-.7.87-1.06,1.3a74,74,0,0,1-11.23,10.9l-.68.53c-.54.4-1.07.79-1.61,1.16s-1.29.89-1.93,1.31a48.56,48.56,0,0,1-5.75,3.18c-5,2.35-10,3.44-14.36,3.06-.48,0-.95-.1-1.41-.17A16.41,16.41,0,0,1,462.1,468c-12.8-8.22-11.28-33.41,3.41-56.25s43.31-41.93,56.1-33.7C527.86,382,529.18,391.81,527.19,403.42Z"/><g opacity=".7"><path fill="#7b8957" d="M515.1,390.23c-.21.27-8,10.52-17.89,25.57L496,417.62h0c-3.82,5.85-7.93,12.35-12,19.24-.3.51-.6,1-.89,1.53h0c-3.25,5.5-6.47,11.23-9.54,17-.25.5-.48.86-.74,1.35,0,0,0,.08-.07.13-2,3.88-3.95,7.8-5.77,11.7-.48,0-.95-.1-1.41-.17,1.75-3.78,3.61-7.56,5.52-11.27l.06-.13c.26-.5.5-.92.76-1.41v0c3.07-5.89,6.26-11.55,9.37-16.88l0,0c.33-.57.66-1.11,1-1.66h0c1.16-2,2.31-3.87,3.44-5.71,3-4.85,5.91-9.47,8.71-13.76l1.38-2.11c10.14-15.35,18.14-25.89,18.24-26a.68.68,0,0,1,.94-.12A.67.67,0,0,1,515.1,390.23Z"/><path fill="#7b8957" d="M494.39,418.17l.59-27a.67.67,0,0,1,.68-.66.69.69,0,0,1,.66.69l-.55,25.08,19.77-6.74a.67.67,0,0,1,.43,1.27Z"/><path fill="#7b8957" d="M481.22,438.74l-5.08-25.93a.67.67,0,1,1,1.32-.26l4.82,24.63,20.43-3.76a.68.68,0,0,1,.78.54.66.66,0,0,1-.54.78Z"/><path fill="#7b8957" d="M471,457.18,463.77,438a.65.65,0,0,1,.39-.86.67.67,0,0,1,.86.39l6.86,18.2L483.24,454a.67.67,0,0,1,.76.56.67.67,0,0,1-.56.76Z"/></g><path fill="#c4d385" d="M539.76,438.7a90.57,90.57,0,0,1-7.09,10.8l-1,1.23c-.58.71-1.16,1.41-1.75,2.09a63.92,63.92,0,0,1-10,9.35c-.44.34-.88.66-1.33,1A46.11,46.11,0,0,1,511,467.5c-7.74,3.46-15.06,3.7-20-.12a13.25,13.25,0,0,1-1.73-1.61,12.58,12.58,0,0,1-.86-1.07,14.57,14.57,0,0,1-1.34-2.27,21.58,21.58,0,0,1-1.8-9.69c0-.45,0-.9.06-1.36a46.61,46.61,0,0,1,4.5-16.3c.23-.5.47-1,.72-1.49a67.13,67.13,0,0,1,7-11.1,74.24,74.24,0,0,1,8.83-9.56c.88-.8,1.77-1.57,2.67-2.32,6.83-5.72,14.4-10.15,21.1-12.21,6-1.84,11.23-1.82,14.67.82C552.6,405.24,548.59,423,539.76,438.7Z"/><g opacity=".68"><path fill="#7b8957" d="M537.76,409.61c-.21.22-7.91,8.56-18.15,21.07l-1.14,1.4-1.87,2.32c-2.14,2.65-4.36,5.46-6.61,8.39-.36.45-.71.91-1.06,1.37-2.87,3.73-5.79,7.65-8.69,11.69-.15.2-.29.39-.42.59-.32.43-.63.87-.94,1.31-1.91,2.68-3.81,5.42-5.66,8.19a12.76,12.76,0,0,1-.94-1c1.3-1.94,2.63-3.87,4-5.78.42-.6.84-1.21,1.27-1.8l1.07-1.51c3-4.24,6.09-8.35,9.1-12.27.38-.5.77-1,1.16-1.5,3-3.89,5.91-7.56,8.66-10.95l1.36-1.65.45-.56c9.9-12,17.25-20,17.46-20.22a.66.66,0,0,1,1,0A.68.68,0,0,1,537.76,409.61Z"/><path fill="#7b8957" d="M517.51,432.13l.14-19.26a.67.67,0,1,1,1.34,0l-.13,17.84,17.47-.9a.67.67,0,1,1,.07,1.33Z"/><path fill="#7b8957" d="M507.76,444.19l-2.18-17.4a.67.67,0,1,1,1.33-.16l2,16.19,20.91-.6a.67.67,0,0,1,0,1.34Z"/><path fill="#7b8957" d="M497.59,457.69l-3.33-17a.67.67,0,0,1,1.32-.25l3.12,16,21,.8a.67.67,0,1,1,0,1.34Z"/></g><path fill="#a4b774" d="M541.3,467.69c-13.35,6-26.89,5.39-31.81-1.09a8.88,8.88,0,0,1-1.08-1.81,5.28,5.28,0,0,1-.31-.78,11.42,11.42,0,0,1,.31-7.64c.15-.43.33-.86.52-1.29,2-4.34,6-8.78,11.38-12.5.62-.43,1.26-.85,1.92-1.25a50.78,50.78,0,0,1,5.82-3.08,52.51,52.51,0,0,1,8.8-3c12.82-3.28,26.56-2.17,29.52,4.4C570,447.74,555.81,461.15,541.3,467.69Z"/><g opacity=".7"><path fill="#7b8957" d="M557.32,443.72c-.17.06-6.75,2.3-15.78,6.15l-1.53.65c-3.82,1.65-8,3.57-12.33,5.72l-1.81.9c-2.64,1.35-5.31,2.78-8,4.28-.58.33-1.17.67-1.75,1-2.28,1.33-4.52,2.73-6.68,4.16a7.1,7.1,0,0,1-.61-.9c2.06-1.37,4.2-2.71,6.38-4l1.28-.75c2.79-1.61,5.62-3.14,8.43-4.58l1.33-.68c4.46-2.24,8.83-4.25,12.8-6l1.53-.67c9.33-4,16.17-6.31,16.34-6.37a.54.54,0,1,1,.35,1Z"/><path fill="#7b8957" d="M553.79,455h-.08l-14.82-4.87,6-12.46a.55.55,0,0,1,1,.48l-5.47,11.33L554.05,454a.55.55,0,0,1,.35.7A.53.53,0,0,1,553.79,455Z"/><path fill="#7b8957" d="M538.32,459.69h0l-13.5-2.75,3.38-11.5a.57.57,0,0,1,.69-.4.52.52,0,0,1,.37.66l-3,10.27,12.35,2.39a.69.69,0,0,1,.41.77C538.92,459.42,538.61,459.74,538.32,459.69Z"/><path fill="#7b8957" d="M526.93,464.72h0l-11.77-2.51,2.29-10.4a.58.58,0,0,1,.66-.48.52.52,0,0,1,.42.63l-2,9.19,10.7,2.07c.3,0,.46.56.4.85S527.22,464.77,526.93,464.72Z"/></g><path fill="#c4d385" d="M186.81,253.65H144a24.42,24.42,0,0,1-24.42-24.42h0A24.43,24.43,0,0,1,144,204.8h42.8a24.43,24.43,0,0,1,24.43,24.43h0A24.42,24.42,0,0,1,186.81,253.65Z"/><polygon fill="#c4d385" points="179.62 252.8 179.62 260.87 169.05 252.8 179.62 252.8"/><circle cx="179.51" cy="228.87" r="4.02" fill="#a4b774"/><path fill="#a4b774" d="M161.4,228.87a4,4,0,1,0,4-4A4,4,0,0,0,161.4,228.87Z"/><path fill="#a4b774" d="M147.3,229.09a4,4,0,1,0,4-4A4,4,0,0,0,147.3,229.09Z"/><rect width="91.65" height="48.85" x="64.32" y="241.89" fill="#a4b774" rx="24.42" transform="rotate(-180 110.145 266.315)"/><polygon fill="#a4b774" points="124.65 289.44 124.65 297.95 113.78 289.44 124.65 289.44"/><path fill="#c4d385" d="M120.22,266a4,4,0,1,0,4-4A4,4,0,0,0,120.22,266Z"/><path fill="#c4d385" d="M106.12,266a4,4,0,1,0,4-4A4,4,0,0,0,106.12,266Z"/><path fill="#c4d385" d="M92,266.17a4,4,0,1,0,4-4A4,4,0,0,0,92,266.17Z"/><polygon fill="#db6a31" points="260.91 465.49 208.35 465.49 131 349.4 183.55 349.4 260.91 465.49"/><polygon fill="#db6a31" points="373.45 465.49 320.9 465.49 258.66 370.07 311.21 370.07 373.45 465.49"/><polygon fill="#ef7531" points="495.29 327.58 483.45 259.5 417.27 280.7 436.89 292.49 322.05 465.63 374.61 465.63 474.46 315.07 495.29 327.58"/><polygon fill="#ef7531" points="122.25 467.02 69.69 467.02 131 349.4 183.55 349.4 122.25 467.02"/><polygon fill="#ef7531" points="260.91 465.49 208.35 465.49 258.66 370.07 311.21 370.07 260.91 465.49"/><path fill="#c4d385" d="M48.83,435.6c13.61,26.22,36.55,41.3,51.24,33.67a17.18,17.18,0,0,0,2.69-1.74,14.62,14.62,0,0,0,1.39-1.22C114.79,456,114.24,431.52,102,408c-13.61-26.22-42.71-49.77-57.4-42.14S35.21,409.39,48.83,435.6Z"/><g opacity=".68"><path fill="#7b8957" d="M50.37,385.82c.24.32,9.48,12.57,21.59,30.76l1.35,2c3.19,4.83,6.55,10,10,15.53.41.66.82,1.33,1.24,2,3.51,5.67,7.09,11.61,10.61,17.73l1.08,1.88c2.21,3.88,4.4,7.81,6.53,11.78a14.62,14.62,0,0,0,1.39-1.22c-2-3.67-4-7.3-6-10.89l-1.25-2.17c-3.5-6.11-7.08-12.05-10.59-17.71-.45-.74-.91-1.46-1.36-2.19-3.51-5.61-6.94-10.94-10.2-15.87l-1.6-2.41c-12-18-21.06-30-21.31-30.34a.91.91,0,0,0-1.27-.18A.9.9,0,0,0,50.37,385.82Z"/><path fill="#7b8957" d="M74.6,418.82,77,392.89a.89.89,0,0,0-.81-1,.91.91,0,0,0-1,.82l-2.2,24-23.38-3.55a.91.91,0,0,0-1,.76.89.89,0,0,0,.76,1Z"/><path fill="#7b8957" d="M86.1,436.34l5.25-23.11a.91.91,0,1,0-1.77-.4l-4.88,21.5-28-3.59a.92.92,0,0,0-1,.79.91.91,0,0,0,.79,1Z"/><path fill="#7b8957" d="M98,455.86l6.74-22.48a.89.89,0,0,0-.6-1.12.9.9,0,0,0-1.13.6L96.66,454l-28.32-1.72a.89.89,0,0,0-1,.85.91.91,0,0,0,.85,1Z"/></g><path fill="#a4b774" d="M28.34,461.73C46.1,473.85,66,475.61,72.79,465.66s-2.09-27.84-19.85-40S8.41,408.48,1.61,418.43,10.58,449.6,28.34,461.73Z"/><g opacity=".7"><path fill="#7b8957" d="M70.92,467.82c-2.64-2.53-5.42-5-8.26-7.44l-1.75-1.47c-3.19-2.66-6.45-5.22-9.69-7.67l-2-1.52c-5.22-3.88-10.36-7.43-15.07-10.54L32.23,438c-11.11-7.25-19.32-11.79-19.54-11.91a.75.75,0,0,1-.3-1,.74.74,0,0,1,1-.29c.22.12,8.76,4.84,20.23,12.35l1.89,1.24c4.88,3.25,10.22,7,15.62,11l1.62,1.21c3.39,2.58,6.8,5.29,10.12,8.09L64.42,460c2.58,2.22,5.11,4.5,7.52,6.82Z"/><path fill="#7b8957" d="M14.71,441.94h.11l20.87-3-5-18a.74.74,0,0,0-1.43.4l4.6,16.37-19.2,2.73a.74.74,0,0,0,.1,1.48Z"/><path fill="#7b8957" d="M26.71,449.43h.1l20.88-3-5-18a.74.74,0,0,0-1.43.4l4.59,16.37L26.6,448a.74.74,0,0,0,.11,1.47Z"/><path fill="#7b8957" d="M40.2,461.43h.11l20.87-3-5-18a.74.74,0,1,0-1.42.4l4.59,16.37L40.1,460a.74.74,0,0,0,.1,1.47Z"/></g><rect width="517.23" height="6.97" x="28.27" y="464.92" fill="#b36652" rx="3.31"/><path fill="#5bccce" d="M506.29,122.43a31.55,31.55,0,1,1-28.7-34.16A31.55,31.55,0,0,1,506.29,122.43Z"/><path fill="#fff" d="M473.25,138.31a2.63,2.63,0,0,1-1.7-.81L454,119.21a2.67,2.67,0,0,1,3.85-3.69l15.24,15.91,17.62-25.86a2.66,2.66,0,0,1,2.44-1.16,2.74,2.74,0,0,1,1.27.45,2.67,2.67,0,0,1,.7,3.71l-19.48,28.59a2.65,2.65,0,0,1-2,1.15A1.69,1.69,0,0,1,473.25,138.31Z"/><circle cx="511.27" cy="229.78" r="21.6" fill="#5bccce" transform="rotate(-5.26 510.857 229.628)"/><path fill="#fff" d="M510.17,242.51A1.79,1.79,0,0,1,509,242l-12-12.52a1.82,1.82,0,0,1,.06-2.58,1.78,1.78,0,0,1,1.42-.5,1.81,1.81,0,0,1,1.16.55l10.43,10.89,12.06-17.7a1.83,1.83,0,0,1,2.54-.48,1.83,1.83,0,0,1,.48,2.54l-13.34,19.56a1.78,1.78,0,0,1-1.35.79A1.6,1.6,0,0,1,510.17,242.51Z"/><path fill="#5bccce" d="M398.86,65.49A17.33,17.33,0,1,1,383.1,46.73,17.33,17.33,0,0,1,398.86,65.49Z"/><path fill="#fff" d="M380.71,74.21a1.47,1.47,0,0,1-.93-.45l-9.61-10a1.46,1.46,0,0,1,2.11-2l8.37,8.74,9.67-14.2a1.47,1.47,0,0,1,1.34-.64,1.56,1.56,0,0,1,.7.25,1.48,1.48,0,0,1,.39,2l-10.7,15.69a1.47,1.47,0,0,1-1.09.64Z"/><polygon fill="#e89243" points="133.11 426.77 164.01 450.76 187.67 445.15 210.62 412.18 166.49 401.47 133.11 426.77"/><polygon fill="#dd7b6b" points="164.01 450.76 165.95 473.39 181.99 466.68 184.76 445.15 164.01 450.76"/><path fill="#f0a860" d="M100.38,398.6l-11.15-3.08a29.24,29.24,0,0,0-32.74,13h0a29.24,29.24,0,0,0,12.45,41.63l63.27,30L166,473.39,164,450.76Z"/><path fill="#f0a860" d="M212.61,406.63,248,401.27a25.63,25.63,0,0,1,26.3,13h0A25.64,25.64,0,0,1,262,450.17l-76.16,32.88-12.46-24Z"/><path fill="#053b4f" d="M200.29,343.24a8,8,0,0,0-1.53-4.7l0-.08c-2.24-3.14-5.29-7.57-8.65-9.6a12.36,12.36,0,0,1-1.66,2.1,9.29,9.29,0,0,1-4.33,2.74c.21,4.88-3.44,11.86-6.61,15.12l0,0a5.93,5.93,0,1,0,9.33,6.08h0a7.44,7.44,0,0,1,6.16-3.61,1.73,1.73,0,0,0,.31-.07A8.06,8.06,0,0,0,200.29,343.24Z"/><path fill="#053b4f" d="M158.47,286.21c-14.14,6-22.23,23.9-23.65,28.78s-4.63,8.23-10.54,8.37A10.54,10.54,0,0,0,114.56,338h0c.67,2.32,1,5.41-3.39,6.2h0a13.46,13.46,0,0,0-4.82,24.38h0c3.79,2.54,2.89,4.4,2,9.91h0a16.27,16.27,0,0,0,30.89,10h0l32.42-37.58s15.78-45.37,18.28-55.4S172.61,280.17,158.47,286.21Z"/><path fill="#eb8b76" d="M158.7,327.74l-.23,23.76a15.18,15.18,0,0,0,13.14,7.38c12.35-.13,13.15-8.79,13.15-8.79L183.92,330l-21.37-13.07Z"/><path fill="#873a34" d="M183.55,333.84c-4.48,2.32-12.36,2.47-18-8.07S183.55,333.84,183.55,333.84Z" opacity=".52"/><path fill="#eb8b76" d="M165,300.84c-5.52,8-3.12,22.64,4.9,28.21s14.68,7.76,20.2-.19,2.71-27.5-5.31-33.07S170.48,292.89,165,300.84Z"/><path fill="#873a34" d="M168.82,315.44c.16,1.6,2.33,2.69,4.85,2.44s4.43-1.75,4.27-3.35-2.33-2.69-4.85-2.44S168.66,313.85,168.82,315.44Z" opacity=".34"/><g clip-path="url(#d)" mask="url(#c)" opacity=".52"><polygon fill="#873a34" points="187.92 317.09 189.15 311.04 190.62 311.29 189.59 317.37 187.92 317.09"/><polygon fill="#873a34" points="187.85 317.08 189.09 311.03 189.15 311.04 187.92 317.09 187.85 317.08"/><polygon fill="#883b35" points="187.79 317.07 189.03 311.02 189.09 311.03 187.85 317.08 187.79 317.07"/><polygon fill="#893c36" points="187.73 317.06 188.97 311.01 189.03 311.02 187.79 317.07 187.73 317.06"/><polygon fill="#8a3d36" points="187.67 317.05 188.9 311 188.97 311.01 187.73 317.06 187.67 317.05"/><polygon fill="#8c3f37" points="187.61 317.04 188.84 310.99 188.9 311 187.67 317.05 187.61 317.04"/><polygon fill="#8d4038" points="187.55 317.03 188.78 310.98 188.84 310.99 187.61 317.04 187.55 317.03"/><polygon fill="#8e4139" points="187.49 317.02 188.72 310.97 188.78 310.98 187.55 317.03 187.49 317.02"/><polygon fill="#8f4239" points="187.42 317.01 188.66 310.96 188.72 310.97 187.49 317.02 187.42 317.01"/><polygon fill="#90433a" points="187.36 317 188.6 310.95 188.66 310.96 187.42 317.01 187.36 317"/><polygon fill="#91443b" points="187.3 316.99 188.53 310.94 188.6 310.95 187.36 317 187.3 316.99"/><polygon fill="#92453c" points="187.24 316.97 188.47 310.93 188.53 310.94 187.3 316.99 187.24 316.97"/><polygon fill="#93463c" points="187.18 316.96 188.41 310.92 188.47 310.93 187.24 316.97 187.18 316.96"/><polygon fill="#94473d" points="187.12 316.95 188.35 310.9 188.41 310.92 187.18 316.96 187.12 316.95"/><polygon fill="#96493e" points="187.06 316.94 188.29 310.89 188.35 310.9 187.12 316.95 187.06 316.94"/><polygon fill="#974a3f" points="186.99 316.93 188.23 310.88 188.29 310.89 187.06 316.94 186.99 316.93"/><polygon fill="#984b3f" points="186.93 316.92 188.17 310.87 188.23 310.88 186.99 316.93 186.93 316.92"/><polygon fill="#994c40" points="186.87 316.91 188.1 310.86 188.17 310.87 186.93 316.92 186.87 316.91"/><polygon fill="#9a4d41" points="186.81 316.9 188.04 310.85 188.1 310.86 186.87 316.91 186.81 316.9"/><polygon fill="#9b4e42" points="186.75 316.89 187.98 310.84 188.04 310.85 186.81 316.9 186.75 316.89"/><polygon fill="#9c4f42" points="186.69 316.88 187.92 310.83 187.98 310.84 186.75 316.89 186.69 316.88"/><polygon fill="#9d5043" points="186.62 316.87 187.86 310.82 187.92 310.83 186.69 316.88 186.62 316.87"/><polygon fill="#9e5144" points="186.56 316.86 187.8 310.81 187.86 310.82 186.62 316.87 186.56 316.86"/><polygon fill="#9f5244" points="186.5 316.85 187.74 310.8 187.8 310.81 186.56 316.86 186.5 316.85"/><polygon fill="#a05345" points="186.44 316.84 187.67 310.79 187.74 310.8 186.5 316.85 186.44 316.84"/><polygon fill="#a15446" points="186.38 316.83 187.61 310.78 187.67 310.79 186.44 316.84 186.38 316.83"/><polygon fill="#a25547" points="186.32 316.82 187.55 310.77 187.61 310.78 186.38 316.83 186.32 316.82"/><polygon fill="#a35647" points="186.25 316.81 187.49 310.76 187.55 310.77 186.32 316.82 186.25 316.81"/><polygon fill="#a45748" points="186.19 316.8 187.43 310.75 187.49 310.76 186.25 316.81 186.19 316.8"/><polygon fill="#a55849" points="186.13 316.79 187.37 310.74 187.43 310.75 186.19 316.8 186.13 316.79"/><polygon fill="#a65949" points="186.07 316.78 187.3 310.73 187.37 310.74 186.13 316.79 186.07 316.78"/><polygon fill="#a75a4a" points="186.01 316.76 187.24 310.72 187.3 310.73 186.07 316.78 186.01 316.76"/><polygon fill="#a85b4b" points="185.95 316.75 187.18 310.71 187.24 310.72 186.01 316.76 185.95 316.75"/><polygon fill="#a95c4b" points="185.89 316.74 187.12 310.7 187.18 310.71 185.95 316.75 185.89 316.74"/><polygon fill="#aa5d4c" points="185.82 316.73 187.06 310.69 187.12 310.7 185.89 316.74 185.82 316.73"/><polygon fill="#ab5e4d" points="185.76 316.72 187 310.68 187.06 310.69 185.82 316.73 185.76 316.72"/><polygon fill="#ac5f4d" points="185.7 316.71 186.94 310.67 187 310.68 185.76 316.72 185.7 316.71"/><polygon fill="#ad604e" points="185.64 316.7 186.87 310.65 186.94 310.67 185.7 316.71 185.64 316.7"/><polygon fill="#ae614f" points="185.58 316.69 186.81 310.64 186.87 310.65 185.64 316.7 185.58 316.69"/><polygon fill="#af624f" points="185.52 316.68 186.75 310.63 186.81 310.64 185.58 316.69 185.52 316.68"/><polygon fill="#b06350" points="185.46 316.67 186.69 310.62 186.75 310.63 185.52 316.68 185.46 316.67"/><polygon fill="#b16450" points="185.39 316.66 186.63 310.61 186.69 310.62 185.46 316.67 185.39 316.66"/><polygon fill="#b26551" points="185.33 316.65 186.57 310.6 186.63 310.61 185.39 316.66 185.33 316.65"/><polygon fill="#b26552" points="185.27 316.64 186.5 310.59 186.57 310.6 185.33 316.65 185.27 316.64"/><polygon fill="#b36652" points="185.21 316.63 186.44 310.58 186.5 310.59 185.27 316.64 185.21 316.63"/><polygon fill="#b36652" points="186.44 310.58 185.21 316.63 185.02 316.6 186.06 310.52 186.44 310.58"/></g><path fill="#053b4f" d="M176.15,309.88a.71.71,0,0,1,.07-1.4l5-.32a.71.71,0,0,1,.09,1.41l-5,.32Z"/><path fill="#053b4f" d="M174.47,307.23l-.18-.06a.47.47,0,0,1-.14-.65,5.78,5.78,0,0,1,3.83-2,5.37,5.37,0,0,1,4.2.79.47.47,0,1,1-.59.73,4.44,4.44,0,0,0-3.45-.59,5,5,0,0,0-3.2,1.62A.44.44,0,0,1,174.47,307.23Z"/><path fill="#873a34" d="M189.78,322.82a5.12,5.12,0,0,0-2.56-2.92c-1.82-.69-6.29.8-6.29.8Z" opacity=".4"/><path fill="#873a34" d="M189.4,323.18s-1.32,2.85-3.09,2.8c-6.51-.2-6.19-5.57-6.19-5.57Z" opacity=".4"/><path fill="#053b4f" d="M164.5,322.48a8.11,8.11,0,0,0-12.45-8.13c-.25-.26-.42-.35-.49-.19-.51,1.16-4.91,2.22-7.09,2.8l-.44.12-.24.07h0a6.73,6.73,0,0,0,1,13l.15,0h0c1,.17,2,.69,1.81,1.71h0c0,.05,0,.11,0,.17a5.35,5.35,0,1,0,10.54,1.79,5.24,5.24,0,0,0-.2-2.59h0a2.6,2.6,0,0,1,1.89-2.43h0A8.11,8.11,0,0,0,164.5,322.48Z"/><path fill="#fff" d="M189.94,322.79l-8.2-1.84a2.65,2.65,0,0,1-.93-.4l-1.49-1,2.85,3.3a2.38,2.38,0,0,0,1.3.77l3.3.71a2.38,2.38,0,0,0,2.1-.57Z"/><path fill="#053b4f" d="M185.35,296.24c-3.51-2.15-11.39-2.83-14,3s-2.3,12.2-6.71,13.57-11.73.31-11.73.31l10.86-21.85,14.48-2.12Z"/><path fill="#eb8b76" d="M157.13,309.59a5.15,5.15,0,1,0,7.18-1.3A5.15,5.15,0,0,0,157.13,309.59Z"/><path fill="#873a34" d="M164,312.63a2.33,2.33,0,1,1-2.26-2.19A2.22,2.22,0,0,1,164,312.63Z" opacity=".4"/><path fill="#fff" d="M150.22,347.42l8.52-.16s3.24,8.1,13.65,8.31a12.64,12.64,0,0,0,12.32-8.31l4.69.2L220.71,407l-67,14.81L111.2,411Z"/><path fill="#fff" d="M158.74,347.26l-18.58.36A13.08,13.08,0,0,0,130.4,352L90.75,396.36a23,23,0,0,0-2.65,27.09h0a23,23,0,0,0,24,10.93l44.44-8.2V405.66l-34.31.66Z"/><path fill="#fff" d="M184.71,347.26l8.46.36a16.22,16.22,0,0,1,12.32,5.68l30.86,36.1A27.62,27.62,0,0,1,243,407.33v1.57a27.6,27.6,0,0,1-12.71,23.24l-26.79,17.17-6.32-16.15,18.33-22.84Z"/><path fill="#eb8b76" d="M184.3,480.1s-17.08,3.83-28.09,9.06S119.39,501.38,117,504.87s-7.54,6.11-8.44-1.74,5.25-13.53,10.46-14.84,12.43-7.1,14.06-14.9,11.87-12.17,17.22-6.71,15.45,2,18.48,0,6.24-4.41,6.24-4.41Z"/><polygon fill="#bfbfbf" points="153.31 407.18 122.25 407.77 139.4 381.47 131.5 402.72 153.31 407.18" opacity=".66"/><polygon fill="#bfbfbf" points="214.12 409.33 199.63 383.31 205.67 411.15 214.12 409.33"/><path fill="#eb8b76" d="M188.23,422.16a.06.06,0,0,1,0,0l0-.14c.06-.33.1-.73.14-1.12,0-.11.29-.23.29-.34s.3-.36.3-.53v0a10.31,10.31,0,0,0-.26-1.76s-.13,0-.13,0a2.09,2.09,0,0,0,.13-.4,1.22,1.22,0,0,0,.26-.06h0c0-.22-.67-.67-.76-.86l-.84-1.07c-.25-.4-.46-.61-.16-.43a7.82,7.82,0,0,1,2,2.63c.4.78,2.87,3.85,3.5,2.58s-2-6-2-6l.26.08,1.35.4c1.61.48,2.89-.35,3-.89s-8.36-4.47-9.2-4.82-3.35-.19-3.86-.25h-.08a6.58,6.58,0,0,0-1.65-1c-1.1-.43-3.4-.52-6.77-.13-3.63.43-20.46,2.19-20.46,2.19L154.43,424s10.45-4.75,11-4.65c0,0,.06-.51.1-.51h0c.89,1.16,5.72,1.7,7.17,1.76s5.12-.55,5.93-.39,2.35.88,3.9,1.13a12.53,12.53,0,0,0,3.58-.11s.74,1.61,1.49,1.74l.13,0C187.91,423,188.13,422.44,188.23,422.16Zm-10.55-6.5c.09-.07.2-.2.29-.26l.81-.58h0l0,.05c.33.32,1.66,3.25.87,3.11a24.65,24.65,0,0,1-3.16-1.14C176.36,416.73,177.1,416.09,177.68,415.66Zm6,1.89c-.15-.2-1.08-3.12-2.22-4.14l0,0,0,0a9.85,9.85,0,0,1,2.45,2.18,8.6,8.6,0,0,1,1.22,2.81C185.1,418.61,183.87,417.76,183.72,417.55Z"/><path fill="#873a34" d="M172.87,409.55a8.6,8.6,0,0,1,3.83-.83,48.92,48.92,0,0,0,5.56.34h-.07a7,7,0,0,0-1.64-1c-1.11-.43-3.41-.52-6.78-.13a10.22,10.22,0,0,0-2.13,1.72C171.05,410.44,172,410.17,172.87,409.55Z" opacity=".14"/><path fill="#873a34" d="M188.23,422.16a.06.06,0,0,1,0,0,.49.49,0,0,0,0-.13c.07-.34.11-.73.15-1.12,0-.12,0-.24,0-.35a4.52,4.52,0,0,0,0-.53l0,0c0-.74,0-1.82,0-1.84l-.14-.35a.14.14,0,0,1,0-.06h0c-.11-.3-.55-1.11-.55-1.12l-.51-.81c-.26-.4-.37-.61-.08-.43a8,8,0,0,1,2.07,2.63c.4.78,2.89,3.85,3.51,2.58s-2-6-2-6l.28.08a7.37,7.37,0,0,0-.69-.37c-13.64-5.54-20.6,1.7-21.14,2.11-.74.57-6,2.11-4.69,2.55.24.08.57-.09,1-.09h0c.89,1.16,5.72,1.7,7.17,1.76s5.12-.55,5.93-.39,2.35.88,3.9,1.13a12.53,12.53,0,0,0,3.58-.11s.74,1.61,1.49,1.74h.12C187.89,423,188.12,422.44,188.23,422.16ZM179.7,418a24.65,24.65,0,0,1-3.16-1.14c-.18-.1.56-.74,1.14-1.17.09-.07.2-.2.29-.26l.81-.58h0l0,.05C179.16,415.18,180.49,418.11,179.7,418Zm4-.42c-.15-.2-1.08-3.12-2.22-4.14l0,0,0,0a9.85,9.85,0,0,1,2.45,2.18,8.6,8.6,0,0,1,1.22,2.81C185.1,418.61,183.87,417.76,183.72,417.55Z" opacity=".14"/><path fill="#053b4f" d="M103.83,505.73a2.58,2.58,0,0,1-1.76-.68,2.61,2.61,0,0,1-.18-3.69L137.67,462a2.62,2.62,0,0,1,3.88,3.52l-35.79,39.41A2.61,2.61,0,0,1,103.83,505.73Z"/><polygon fill="#053b4f" points="109.32 497.07 120.9 504.24 137.78 498.25 126.98 477.62 109.32 497.07"/><path fill="#053b4f" d="M157.56,491.16a2.61,2.61,0,0,1-1.12-.25l-24.32-11.56a4.14,4.14,0,0,1,.86-7.78l21.42-4.88a2.62,2.62,0,0,1,1.16,5.11L137.21,476l21.48,10.21a2.62,2.62,0,0,1-1.13,5Z"/><path fill="#053b4f" d="M232.13,403.3H183.76a3.9,3.9,0,0,0-3.79,3L171.06,445h55.36l8.73-37.91A3.11,3.11,0,0,0,232.13,403.3Z"/><path fill="#0e5568" d="M233.27,403.3H186.33a4.11,4.11,0,0,0-4,3.19L173.46,445h55.37l8.44-36.69A4.11,4.11,0,0,0,233.27,403.3Z"/><path fill="#0e5568" d="M153.05,448.73h74.63a1.14,1.14,0,0,0,1.14-1.14V445H153.05a1.13,1.13,0,0,0-1.13,1.13v1.45A1.12,1.12,0,0,0,153.05,448.73Z"/><ellipse cx="207.59" cy="424.44" fill="#053b4f" rx="6.74" ry="2.94"/><path fill="#3ca9b2" d="M495.39,343.44h-9a2.37,2.37,0,0,1,0-4.74h9a17.66,17.66,0,0,0,2.06-.12,2.36,2.36,0,1,1,.59,4.69A21.43,21.43,0,0,1,495.39,343.44Zm-20.35,0H463.69a2.37,2.37,0,0,1,0-4.74H475a2.37,2.37,0,0,1,0,4.74Zm32.89-4.76a2.37,2.37,0,0,1-1.57-4.14,16.45,16.45,0,0,0,5.09-8.36,2.37,2.37,0,1,1,4.59,1.15,21.09,21.09,0,0,1-6.54,10.75A2.36,2.36,0,0,1,507.93,338.68Zm6.38-20.86a2.37,2.37,0,0,1-2.36-2.37V304.1a2.37,2.37,0,1,1,4.73,0v11.35A2.37,2.37,0,0,1,514.31,317.82Zm0-22.71a2.37,2.37,0,0,1-2.36-2.37V281.38a2.37,2.37,0,0,1,4.73,0v11.36A2.37,2.37,0,0,1,514.31,295.11Zm0-22.72A2.36,2.36,0,0,1,512,270V258.67a2.37,2.37,0,0,1,4.73,0V270A2.36,2.36,0,0,1,514.31,272.39Z"/><path fill="#3ca9b2" d="M359.12,269.15a2.37,2.37,0,0,1-2.37-2.37V255.43a2.37,2.37,0,1,1,4.73,0v11.35A2.37,2.37,0,0,1,359.12,269.15Zm0-22.71a2.37,2.37,0,0,1-2.37-2.37V232.72a2.37,2.37,0,1,1,4.73,0v11.35A2.37,2.37,0,0,1,359.12,246.44Zm0-22.71a2.37,2.37,0,0,1-2.37-2.37V210a2.37,2.37,0,1,1,4.73,0v11.35A2.37,2.37,0,0,1,359.12,223.73Zm0-22.71a2.37,2.37,0,0,1-2.37-2.37V187.29a2.37,2.37,0,0,1,4.73,0v11.36A2.37,2.37,0,0,1,359.12,201Zm0-22.72a2.36,2.36,0,0,1-2.37-2.36V164.58a2.37,2.37,0,0,1,4.73,0v11.36A2.36,2.36,0,0,1,359.12,178.3Zm0-22.71a2.37,2.37,0,0,1-2.37-2.36v-7a23,23,0,0,1,.52-4.83,2.36,2.36,0,1,1,4.62,1,18.19,18.19,0,0,0-.41,3.83v7A2.36,2.36,0,0,1,359.12,155.59Zm5.77-21.19a2.37,2.37,0,0,1-1.7-4A22.71,22.71,0,0,1,374,124.15a2.37,2.37,0,0,1,1.14,4.6,18,18,0,0,0-8.59,4.93A2.34,2.34,0,0,1,364.89,134.4Zm71.77-6h0l-5.33,0a2.37,2.37,0,1,1,0-4.73h0l5.33,0a2.37,2.37,0,0,1,0,4.73ZM420,128.36h0l-11.36,0a2.37,2.37,0,1,1,0-4.73h0l11.35,0a2.37,2.37,0,1,1,0,4.73Zm-22.71-.08h0l-11.36,0a2.36,2.36,0,0,1-2.36-2.37,2.41,2.41,0,0,1,2.38-2.36l11.35,0a2.37,2.37,0,1,1,0,4.73Z"/><path fill="#f6d89f" d="M338.72,160.77a.41.41,0,0,1-.05.09,85,85,0,0,1-7.45,12.32c-.05.07,0,.17-.08.24h0c-4.16,4.59-7.91,9.32-12.62,13.48a87.59,87.59,0,0,1-22.31,14.27,29.87,29.87,0,0,1-59.32,4.59,88.19,88.19,0,0,1-46.62-139.4c.71-.92,1.45-1.82,2.2-2.72a89.84,89.84,0,0,1,9.07-9.25,86.45,86.45,0,0,1,10-7.65c35-22.91,82.74-18.14,112.34,13a88.31,88.31,0,0,1,24,68.7c-.19,2.1-.45,4.2-.78,6.28a89,89,0,0,1-2.44,10.79c-.25.87-.52,1.74-.81,2.6a84.26,84.26,0,0,1-3.3,8.58C340,158.05,339.4,159.43,338.72,160.77Z"/><path fill="#f6d89f" d="M273.42,241.77a15.21,15.21,0,0,1-1.19,27.32,14.52,14.52,0,0,1-13.15-.57,15.21,15.21,0,0,1,1.19-27.32A14.52,14.52,0,0,1,273.42,241.77Z"/><path fill="#f6d89f" d="M259.56,280.62a8.64,8.64,0,0,1-.68,15.57,8.25,8.25,0,0,1-7.34-.32,8.64,8.64,0,0,1,.68-15.57A8.22,8.22,0,0,1,259.56,280.62Z"/><path fill="#0e5568" d="M244.42,82.91a33.43,33.43,0,0,1-10,1.68c-5.45,0-9.4-1.37-12.15-4a14.5,14.5,0,0,1-4.21-10.87c0-9.93,7.27-15.61,17.07-15.61a20.61,20.61,0,0,1,8.3,1.47L242,61a16.55,16.55,0,0,0-7-1.29c-5.63,0-9.88,3.19-9.88,9.67,0,6.16,3.85,9.8,9.4,9.8a8.89,8.89,0,0,0,3.32-.45V72.44h-4.61V67.16h11.13Z"/><path fill="#0e5568" d="M277.06,69c0,9.8-5.95,15.74-14.68,15.74s-14.06-6.7-14.06-15.21c0-9,5.72-15.65,14.55-15.65C272.05,53.91,277.06,60.78,277.06,69Zm-21.6.4c0,5.85,2.75,10,7.27,10s7.19-4.34,7.19-10.15c0-5.37-2.57-10-7.23-10S255.46,63.62,255.46,69.43Z"/><path fill="#0e5568" d="M279,80.69a3.89,3.89,0,0,1,4-4.12,4.1,4.1,0,1,1-4,4.12Z"/><path fill="#0e5568" d="M290.54,80.69a3.89,3.89,0,0,1,4-4.12,4.1,4.1,0,0,1,0,8.2A3.88,3.88,0,0,1,290.54,80.69Z"/><path fill="#0e5568" d="M302.07,80.69a3.89,3.89,0,0,1,4-4.12,4.1,4.1,0,0,1-.05,8.2A3.88,3.88,0,0,1,302.07,80.69Z"/><polygon fill="#d8642a" points="221.9 100.19 223.99 111.17 213.31 162 206.84 170.29 221.9 100.19"/><path fill="#eb8b76" d="M262.8,181.82c-3.56-1.5-14.49-6.23-17.05-8.58-1.7-1.56-3.6-4-5.37-5h0c-.69-2-1.56-1.24-2.16-1.33-1-.15-14.79-2.93-27.6-5.45-11.55-2.28-27.54-5.1-27.54-5.1l14.18-56.59s49.64,21.69,56,22.35,14.18-8.33,22.78-12.82,12.72-4.61,16.47-5.63,7-3.5,10-3.61c2.71-.1,11.79-2,15.66-3.9a8,8,0,0,0,1.05-.59c2.9-2,7.23-6.69,9.93-5.53a7.32,7.32,0,0,1,3,2.95c1.62,2.71,2.13,6.89-2,11.32-6.45,6.87-12,6.17-14.67,7.41-1.19.55-4.85,2-8.6,3.87h0c-4.38,2.18-8.89,4.89-9.69,7.3a2.08,2.08,0,0,0-.1.47,1.23,1.23,0,0,0,0,.27c0,4.6,6.39,8.51,10.89,10.09l.35.13c.19.07.37.15.56.24,4.61,2.09,11.91,8.27,14.15,8.79,2.39.55,9.68,1.7,15.46,3.58s27.27,5.79,31.44,7.56,11.41,3.51,10.2,9.32-7.05,4.5-10.86,4c-3-.38-41.14-7.64-41.14-7.64s1.55,1.43-.86,6-12,5.05-12,5.05a10,10,0,0,1-3.39,5.33c-2.75,2.15-7.5,2-8.22,3.22s-3.94,5.75-8.44,7.68a23.25,23.25,0,0,1-12.69,1.55C278.92,188,266.37,183.32,262.8,181.82Z"/><path fill="#873a34" d="M328.12,159.72c-7.61-1.81-15-5-15.33-3.56s5.46,3.05,8.48,3.33S328.12,159.72,328.12,159.72Z" opacity=".14"/><path fill="#873a34" d="M315.3,170.78c-4.08-2.4-10.22-4.95-13.33-4.83s-.8,1.61,4.54,2.79S315.3,170.78,315.3,170.78Z" opacity=".14"/><path fill="#873a34" d="M303.69,179.33c-4.54-1.84-8.88-3.68-11.29-3.54s-2.06,1.62,1,2.2S303.69,179.33,303.69,179.33Z" opacity=".14"/><path fill="#873a34" d="M281.78,125s15.52-7.22,25.12-9.39c-4.84,2.4-9.83,5.47-9.82,8.06,0,4.59,6.4,8.47,10.9,10.05.29.1.59.25.92.34h0C303,133,281.78,125,281.78,125Z" opacity=".14"/><path fill="#873a34" d="M320.74,101.33a21.41,21.41,0,0,1-2.55-5.17,8.76,8.76,0,0,0,1.05-.59c2.9-2,7.22-6.69,9.92-5.53,1,.41,2.19,3.83-.65,7.06C324.22,101.44,322.31,103.2,320.74,101.33Z" opacity=".14"/><path fill="#873a34" d="M369.48,161a2.81,2.81,0,0,1,1.11-1.61c.84-.64,3-2,6.93-.63,1.35.46,2.21,2.42,1.74,4.45-.64,2.7-2.32,3.87-4.77,3.8-5.42-.17-5.15-3.9-5.08-5.5v-.1A2.9,2.9,0,0,1,369.48,161Z" opacity=".14"/><path fill="#ef7531" d="M221.9,100.19l-15.06,70.1-24.59-6.56s-13-25-9.59-51.27c3-23,8.5-30.64,8.5-30.64Z"/><path fill="#3ca9b2" d="M44.94,360.94a2.36,2.36,0,0,1-2.36-2.36V347.22a2.37,2.37,0,0,1,4.73,0v11.36A2.37,2.37,0,0,1,44.94,360.94Zm0-22.71a2.36,2.36,0,0,1-2.36-2.36V324.51a2.37,2.37,0,1,1,4.73,0v11.36A2.37,2.37,0,0,1,44.94,338.23Zm0-22.71a2.37,2.37,0,0,1-2.36-2.37V301.8a2.37,2.37,0,1,1,4.73,0v11.35A2.37,2.37,0,0,1,44.94,315.52Zm0-22.71a2.37,2.37,0,0,1-2.36-2.37V279.09a2.37,2.37,0,1,1,4.73,0v11.35A2.37,2.37,0,0,1,44.94,292.81Zm3.29-21.75a2.37,2.37,0,0,1-1.56-4.15,12,12,0,0,1,7.89-3H59a2.37,2.37,0,1,1,0,4.73H54.56a7.23,7.23,0,0,0-4.77,1.79A2.39,2.39,0,0,1,48.23,271.06Z"/></svg>